<svg width="984" height="223" viewBox="0 0 984 223" fill="none" xmlns="http://www.w3.org/2000/svg">
<path fill-rule="evenodd" clip-rule="evenodd" d="M0 111V222H56C93 222 112 221.831 112 221.5C112 221.204 113.833 221 116.5 221C119.167 221 121 220.797 121 220.5C121 220.222 122.334 220 124 220C125.666 220 127 219.778 127 219.5C127 219.225 128.125 219 129.5 219C130.875 219 132 218.775 132 218.5C132 218.225 132.9 218 134 218C135.1 218 136 217.775 136 217.5C136 217.225 136.675 217 137.5 217C138.325 217 139 216.775 139 216.5C139 216.225 139.9 216 141 216C142.1 216 143 215.775 143 215.5C143 215.225 143.675 215 144.5 215C145.325 215 146 214.775 146 214.5C146 214.225 146.45 214 147 214C147.55 214 148 213.775 148 213.5C148 213.225 148.675 213 149.5 213C150.325 213 151 212.775 151 212.5C151 212.225 151.675 212 152.5 212C153.325 212 154 211.775 154 211.5C154 211.225 154.45 211 155 211C155.55 211 156 210.775 156 210.5C156 210.225 156.45 210 157 210C157.55 210 158 209.775 158 209.5C158 209.225 158.45 209 159 209C159.55 209 160 208.775 160 208.5C160 208.225 160.45 208 161 208C161.55 208 162 207.775 162 207.5C162 207.225 162.45 207 163 207C163.55 207 164 206.775 164 206.5C164 206.225 164.4 206 164.889 206C165.379 206 166.104 205.55 166.5 205C166.896 204.45 167.621 204 168.111 204C168.6 204 169 203.775 169 203.5C169 203.225 169.4 203 169.889 203C170.379 203 171.104 202.55 171.5 202C171.896 201.45 172.531 201 172.91 201C173.289 201 174.229 200.325 175 199.5C175.771 198.675 176.663 198 176.983 198C177.303 198 178.661 196.875 180 195.5C181.339 194.125 182.678 193 182.975 193C183.68 193 191 185.681 191 184.976C191 184.679 192.125 183.34 193.5 182C194.875 180.661 196 179.263 196 178.893C196 178.523 196.45 177.897 197 177.5C197.55 177.104 198 176.429 198 176C198 175.572 198.45 174.897 199 174.5C199.55 174.104 200 173.429 200 173C200 172.572 200.45 171.897 201 171.5C201.55 171.104 202 170.379 202 169.89C202 169.401 202.225 169 202.5 169C202.775 169 203 168.55 203 168C203 167.45 203.225 167 203.5 167C203.775 167 204 166.55 204 166C204 165.45 204.225 165 204.5 165C204.775 165 205 164.55 205 164C205 163.45 205.225 163 205.5 163C205.775 163 206 162.55 206 162C206 161.45 206.225 161 206.5 161C206.775 161 207 160.55 207 160C207 159.45 207.225 159 207.5 159C207.775 159 208 158.55 208 158C208 157.45 208.225 157 208.5 157C208.775 157 209 156.325 209 155.5C209 154.675 209.225 154 209.5 154C209.775 154 210 153.325 210 152.5C210 151.675 210.225 151 210.5 151C210.775 151 211 150.325 211 149.5C211 148.675 211.225 148 211.5 148C211.775 148 212 147.325 212 146.5C212 145.675 212.225 145 212.5 145C212.775 145 213 144.1 213 143C213 141.9 213.225 141 213.5 141C213.775 141 214 139.875 214 138.5C214 137.125 214.225 136 214.5 136C214.775 136 215 134.875 215 133.5C215 132.125 215.225 131 215.5 131C215.796 131 216 129.167 216 126.5C216 123.834 216.204 122 216.5 122C216.817 122 217 118.167 217 111.5C217 104.834 216.817 101 216.5 101C216.204 101 216 99.1665 216 96.5C216 93.8335 215.796 92 215.5 92C215.225 92 215 90.875 215 89.5C215 88.125 214.775 87 214.5 87C214.225 87 214 85.875 214 84.5C214 83.125 213.775 82 213.5 82C213.225 82 213 81.1 213 80C213 78.9 212.775 78 212.5 78C212.225 78 212 77.325 212 76.5C212 75.675 211.775 75 211.5 75C211.225 75 211 74.325 211 73.5C211 72.675 210.775 72 210.5 72C210.225 72 210 71.325 210 70.5C210 69.675 209.775 69 209.5 69C209.225 69 209 68.325 209 67.5C209 66.675 208.775 66 208.5 66C208.225 66 208 65.55 208 65C208 64.45 207.775 64 207.5 64C207.225 64 207 63.55 207 63C207 62.45 206.775 62 206.5 62C206.225 62 206 61.325 206 60.5C206 59.675 205.775 59 205.5 59C205.225 59 205 58.5995 205 58.1105C205 57.621 204.55 56.8965 204 56.5C203.45 56.1035 203 55.379 203 54.8895C203 54.4005 202.775 54 202.5 54C202.225 54 202 53.55 202 53C202 52.45 201.775 52 201.5 52C201.225 52 201 51.5995 201 51.1105C201 50.621 200.55 49.8965 200 49.5C199.45 49.1035 199 48.469 199 48.09C199 47.7115 198.325 46.7705 197.5 46C196.675 45.2295 196 44.3295 196 44C196 43.6705 195.325 42.7705 194.5 42C193.675 41.2295 193 40.349 193 40.044C193 39.326 181.684 28 180.966 28C180.667 28 179.557 27.1 178.5 26C177.443 24.9 176.314 24 175.99 24C175.666 24 174.771 23.325 174 22.5C173.229 21.675 172.289 21 171.91 21C171.531 21 170.896 20.55 170.5 20C170.104 19.45 169.379 19 168.889 19C168.4 19 168 18.775 168 18.5C168 18.225 167.6 18 167.111 18C166.621 18 165.896 17.55 165.5 17C165.104 16.45 164.379 16 163.889 16C163.4 16 163 15.775 163 15.5C163 15.225 162.55 15 162 15C161.45 15 161 14.775 161 14.5C161 14.225 160.55 14 160 14C159.45 14 159 13.775 159 13.5C159 13.225 158.55 13 158 13C157.45 13 157 12.775 157 12.5C157 12.225 156.325 12 155.5 12C154.675 12 154 11.775 154 11.5C154 11.225 153.55 11 153 11C152.45 11 152 10.775 152 10.5C152 10.225 151.325 10 150.5 10C149.675 10 149 9.775 149 9.5C149 9.225 148.55 9 148 9C147.45 9 147 8.775 147 8.5C147 8.225 146.325 8 145.5 8C144.675 8 144 7.775 144 7.5C144 7.225 143.325 7 142.5 7C141.675 7 141 6.775 141 6.5C141 6.225 140.1 6 139 6C137.9 6 137 5.775 137 5.5C137 5.225 136.1 5 135 5C133.9 5 133 4.775 133 4.5C133 4.225 132.1 4 131 4C129.9 4 129 3.775 129 3.5C129 3.222 127.666 3 126 3C124.334 3 123 2.778 123 2.5C123 2.2145 121.5 2 119.5 2C117.5 2 116 1.7855 116 1.5C116 1.1945 113.667 1 110 1C106.333 1 104 0.8055 104 0.5C104 0.17 86.3335 0 52 0H0V111ZM238.625 0.747986C238.129 1.31099 238 24.224 238 111.729V222H271H304V188V154H315.785C328.091 154 329 154.152 329 156.214C329 156.646 329.225 157 329.5 157C329.775 157 330 157.675 330 158.5C330 159.325 330.225 160 330.5 160C330.775 160 331 160.45 331 161C331 161.55 331.225 162 331.5 162C331.775 162 332 162.45 332 163C332 163.55 332.225 164 332.5 164C332.775 164 333 164.675 333 165.5C333 166.325 333.225 167 333.5 167C333.775 167 334 167.45 334 168C334 168.55 334.225 169 334.5 169C334.775 169 335 169.675 335 170.5C335 171.325 335.225 172 335.5 172C335.775 172 336 172.45 336 173C336 173.55 336.225 174 336.5 174C336.775 174 337 174.45 337 175C337 175.55 337.225 176 337.5 176C337.775 176 338 176.675 338 177.5C338 178.325 338.225 179 338.5 179C338.775 179 339 179.45 339 180C339 180.55 339.225 181 339.5 181C339.775 181 340 181.45 340 182C340 182.55 340.225 183 340.5 183C340.775 183 341 183.675 341 184.5C341 185.325 341.225 186 341.5 186C341.775 186 342 186.45 342 187C342 187.55 342.225 188 342.5 188C342.775 188 343 188.675 343 189.5C343 190.325 343.225 191 343.5 191C343.775 191 344 191.45 344 192C344 192.55 344.225 193 344.5 193C344.775 193 345 193.45 345 194C345 194.55 345.225 195 345.5 195C345.775 195 346 195.675 346 196.5C346 197.325 346.225 198 346.5 198C346.775 198 347 198.45 347 199C347 199.55 347.225 200 347.5 200C347.775 200 348 200.45 348 201C348 201.55 348.225 202 348.5 202C348.775 202 349 202.675 349 203.5C349 204.325 349.225 205 349.5 205C349.775 205 350 205.45 350 206C350 206.55 350.225 207 350.5 207C350.775 207 351 207.675 351 208.5C351 209.325 351.225 210 351.5 210C351.775 210 352 210.45 352 211C352 211.55 352.225 212 352.5 212C352.775 212 353 212.45 353 213C353 213.55 353.225 214 353.5 214C353.775 214 354 214.675 354 215.5C354 216.325 354.225 217 354.5 217C354.775 217 355 217.45 355 218C355 218.55 355.225 219 355.5 219C355.775 219 356 219.354 356 219.786C356 222.044 355.253 222 394.215 222C430.667 222 431 221.991 431 221C431 220.45 430.775 220 430.5 220C430.225 220 430 219.55 430 219C430 218.45 429.775 218 429.5 218C429.225 218 429 217.55 429 217C429 216.45 428.775 216 428.5 216C428.225 216 428 215.55 428 215C428 214.45 427.775 214 427.5 214C427.225 214 427 213.55 427 213C427 212.45 426.775 212 426.5 212C426.225 212 426 211.55 426 211C426 210.45 425.775 210 425.5 210C425.225 210 425 209.55 425 209C425 208.45 424.775 208 424.5 208C424.225 208 424 207.55 424 207C424 206.45 423.775 206 423.5 206C423.225 206 423 205.55 423 205C423 204.45 422.775 204 422.5 204C422.225 204 422 203.55 422 203C422 202.45 421.775 202 421.5 202C421.225 202 421 201.55 421 201C421 200.45 420.775 200 420.5 200C420.225 200 420 199.55 420 199C420 198.45 419.775 198 419.5 198C419.225 198 419 197.55 419 197C419 196.45 418.775 196 418.5 196C418.225 196 418 195.55 418 195C418 194.45 417.775 194 417.5 194C417.225 194 417 193.55 417 193C417 192.45 416.775 192 416.5 192C416.225 192 416 191.55 416 191C416 190.45 415.775 190 415.5 190C415.225 190 415 189.55 415 189C415 188.45 414.775 188 414.5 188C414.225 188 414 187.55 414 187C414 186.45 413.775 186 413.5 186C413.225 186 413 185.55 413 185C413 184.45 412.775 184 412.5 184C412.225 184 412 183.55 412 183C412 182.45 411.775 182 411.5 182C411.225 182 411 181.55 411 181C411 180.45 410.775 180 410.5 180C410.225 180 410 179.55 410 179C410 178.45 409.775 178 409.5 178C409.225 178 409 177.55 409 177C409 176.45 408.775 176 408.5 176C408.225 176 408 175.55 408 175C408 174.45 407.775 174 407.5 174C407.225 174 407 173.55 407 173C407 172.45 406.775 172 406.5 172C406.225 172 406 171.55 406 171C406 170.45 405.775 170 405.5 170C405.225 170 405 169.55 405 169C405 168.45 404.775 168 404.5 168C404.225 168 404 167.55 404 167C404 166.45 403.775 166 403.5 166C403.225 166 403 165.55 403 165C403 164.45 402.775 164 402.5 164C402.225 164 402 163.55 402 163C402 162.45 401.775 162 401.5 162C401.225 162 401 161.55 401 161C401 160.45 400.775 160 400.5 160C400.225 160 400 159.55 400 159C400 158.45 399.775 158 399.5 158C399.225 158 399 157.55 399 157C399 156.45 398.775 156 398.5 156C398.225 156 398 155.55 398 155C398 154.45 397.775 154 397.5 154C397.225 154 397 153.55 397 153C397 152.45 396.775 152 396.5 152C396.225 152 396 151.55 396 151C396 150.45 395.775 150 395.5 150C395.225 150 395 149.55 395 149C395 148.45 394.775 148 394.5 148C394.225 148 394 147.55 394 147C394 146.45 393.775 146 393.5 146C393.225 146 393 145.325 393 144.5C393 143.396 393.234 143 393.889 143C394.379 143 395.104 142.55 395.5 142C395.896 141.45 396.572 141 397 141C397.428 141 398.104 140.55 398.5 140C398.896 139.45 399.572 139 400 139C400.428 139 401.104 138.55 401.5 138C401.896 137.45 402.523 137 402.893 137C403.263 137 404.661 135.875 406 134.5C407.339 133.125 408.682 132 408.984 132C409.699 132 413 128.699 413 127.984C413 127.682 414.125 126.34 415.5 125C416.875 123.661 418 122.263 418 121.893C418 121.523 418.45 120.897 419 120.5C419.55 120.104 420 119.379 420 118.89C420 118.401 420.225 118 420.5 118C420.775 118 421 117.599 421 117.11C421 116.621 421.45 115.897 422 115.5C422.55 115.104 423 114.379 423 113.89C423 113.401 423.225 113 423.5 113C423.775 113 424 112.55 424 112C424 111.45 424.225 111 424.5 111C424.775 111 425 110.325 425 109.5C425 108.675 425.225 108 425.5 108C425.775 108 426 107.55 426 107C426 106.45 426.225 106 426.5 106C426.775 106 427 105.325 427 104.5C427 103.675 427.225 103 427.5 103C427.775 103 428 102.325 428 101.5C428 100.675 428.225 100 428.5 100C428.775 100 429 99.1 429 98C429 96.9 429.225 96 429.5 96C429.775 96 430 94.875 430 93.5C430 92.125 430.225 91 430.5 91C430.8 91 431 89 431 86C431 83 431.2 81 431.5 81C431.796 81 432 79.1665 432 76.5C432 73.8335 431.796 72 431.5 72C431.204 72 431 70.1665 431 67.5C431 64.8335 430.796 63 430.5 63C430.222 63 430 61.6665 430 60C430 58.3335 429.778 57 429.5 57C429.225 57 429 56.1 429 55C429 53.9 428.775 53 428.5 53C428.225 53 428 52.325 428 51.5C428 50.675 427.775 50 427.5 50C427.225 50 427 49.325 427 48.5C427 47.675 426.775 47 426.5 47C426.225 47 426 46.55 426 46C426 45.45 425.775 45 425.5 45C425.225 45 425 44.325 425 43.5C425 42.675 424.775 42 424.5 42C424.225 42 424 41.55 424 41C424 40.45 423.775 40 423.5 40C423.225 40 423 39.55 423 39C423 38.45 422.775 38 422.5 38C422.225 38 422 37.5995 422 37.1105C422 36.621 421.55 35.8965 421 35.5C420.45 35.1035 420 34.379 420 33.8895C420 33.4005 419.775 33 419.5 33C419.225 33 419 32.6405 419 32.2005C419 31.761 418.325 30.7705 417.5 30C416.675 29.2295 416 28.349 416 28.044C416 27.264 404.652 16 403.866 16C403.511 16 402.896 15.55 402.5 15C402.104 14.45 401.428 14 401 14C400.572 14 399.896 13.55 399.5 13C399.104 12.45 398.428 12 398 12C397.572 12 396.896 11.55 396.5 11C396.104 10.45 395.379 10 394.889 10C394.4 10 394 9.775 394 9.5C394 9.225 393.55 9 393 9C392.45 9 392 8.775 392 8.5C392 8.225 391.55 8 391 8C390.45 8 390 7.775 390 7.5C390 7.225 389.325 7 388.5 7C387.675 7 387 6.775 387 6.5C387 6.225 386.55 6 386 6C385.45 6 385 5.775 385 5.5C385 5.225 384.325 5 383.5 5C382.675 5 382 4.775 382 4.5C382 4.225 381.1 4 380 4C378.9 4 378 3.775 378 3.5C378 3.225 377.1 3 376 3C374.9 3 374 2.775 374 2.5C374 2.225 372.875 2 371.5 2C370.125 2 369 1.775 369 1.5C369 1.2 367 1 364 1C361 1 359 0.8 359 0.5C359 0.1695 338.721 0.00651245 299.125 0.0190125C248.05 0.0350125 239.158 0.142486 238.625 0.747986ZM614 111V222H647H680V184.5V147H728.5H777V118.214C777 93.9335 776.888 89.317 776.286 88.7145C775.677 88.105 768.534 88 727.786 88H680V73.5V59H729.5H779V29.5V0H696.5H614V111ZM802 29.5V59H831H860V140.5V222H893H926V140.5V59H955H984V30.2145C984 5.93351 983.888 1.31701 983.286 0.714508C982.672 0.100508 969.867 0 892.286 0H802V29.5ZM497 1.5C497 1.775 496.599 2 496.11 2C495.621 2 494.896 2.45 494.5 3C494.104 3.55 493.476 4 493.104 4C492.189 4 491 5.25051 491 6.21451C491 6.64651 490.775 7 490.5 7C490.225 7 490 7.45 490 8C490 8.55 489.775 9 489.5 9C489.225 9 489 9.4005 489 9.8895C489 10.379 488.55 11.1035 488 11.5C487.45 11.8965 487 12.621 487 13.1105C487 13.5995 486.775 14 486.5 14C486.225 14 486 14.45 486 15C486 15.55 485.775 16 485.5 16C485.225 16 485 16.4005 485 16.8895C485 17.379 484.55 18.1035 484 18.5C483.45 18.8965 483 19.621 483 20.1105C483 20.5995 482.775 21 482.5 21C482.225 21 482 21.45 482 22C482 22.55 481.775 23 481.5 23C481.225 23 481 23.4005 481 23.8895C481 24.379 480.55 25.1035 480 25.5C479.45 25.8965 479 26.621 479 27.1105C479 27.5995 478.775 28 478.5 28C478.225 28 478 28.45 478 29C478 29.55 477.775 30 477.5 30C477.225 30 477 30.45 477 31C477 31.55 476.775 32 476.5 32C476.225 32 476 32.4005 476 32.8895C476 33.379 475.55 34.1035 475 34.5C474.45 34.8965 474 35.621 474 36.1105C474 36.5995 473.775 37 473.5 37C473.225 37 473 37.45 473 38C473 38.55 472.775 39 472.5 39C472.225 39 472 39.4005 472 39.8895C472 40.379 471.55 41.1035 471 41.5C470.45 41.8965 470 42.621 470 43.1105C470 43.5995 469.775 44 469.5 44C469.225 44 469 44.45 469 45C469 45.55 468.775 46 468.5 46C468.225 46 468 46.45 468 47C468 47.55 467.775 48 467.5 48C467.225 48 467 48.4005 467 48.8895C467 49.379 466.55 50.1035 466 50.5C465.45 50.8965 465 51.621 465 52.1105C465 52.5995 464.775 53 464.5 53C464.225 53 464 53.45 464 54C464 54.55 463.775 55 463.5 55C463.225 55 463 55.4005 463 55.8895C463 56.379 462.55 57.1035 462 57.5C461.45 57.8965 461 58.621 461 59.1105C461 59.5995 460.775 60 460.5 60C460.225 60 460 60.45 460 61C460 61.55 459.775 62 459.5 62C459.225 62 459 62.4005 459 62.8895C459 63.379 458.55 64.1035 458 64.5C457.45 64.8965 457 65.621 457 66.1105C457 66.5995 456.775 67 456.5 67C456.225 67 456 67.45 456 68C456 68.55 455.775 69 455.5 69C455.225 69 455 69.4005 455 69.8895C455 70.379 454.55 71.1035 454 71.5C453.45 71.8965 453 72.621 453 73.1105C453 73.5995 452.775 74 452.5 74C452.225 74 452 74.45 452 75C452 75.55 451.775 76 451.5 76C451.225 76 451 76.4005 451 76.8895C451 77.379 450.55 78.1035 450 78.5C449.45 78.8965 449 79.621 449 80.1105C449 80.5995 448.775 81 448.5 81C448.225 81 448 82.0285 448 83.2855C448 85.645 448.808 87 450.215 87C450.647 87 451 87.225 451 87.5C451 87.821 455.757 88 464.272 88H477.546L478.772 89.2275C480.021 90.4755 480.558 94 479.5 94C479.225 94 479 94.45 479 95C479 95.55 478.775 96 478.5 96C478.225 96 478 96.4005 478 96.8895C478 97.379 477.55 98.1035 477 98.5C476.45 98.8965 476 99.5715 476 100C476 100.429 475.55 101.104 475 101.5C474.45 101.897 474 102.621 474 103.11C474 103.599 473.775 104 473.5 104C473.225 104 473 104.401 473 104.89C473 105.379 472.55 106.104 472 106.5C471.45 106.897 471 107.621 471 108.11C471 108.599 470.775 109 470.5 109C470.225 109 470 109.401 470 109.89C470 110.379 469.55 111.104 469 111.5C468.45 111.897 468 112.621 468 113.11C468 113.599 467.775 114 467.5 114C467.225 114 467 114.401 467 114.89C467 115.379 466.55 116.104 466 116.5C465.45 116.897 465 117.621 465 118.11C465 118.599 464.775 119 464.5 119C464.225 119 464 119.401 464 119.89C464 120.379 463.55 121.104 463 121.5C462.45 121.897 462 122.621 462 123.11C462 123.599 461.775 124 461.5 124C461.225 124 461 124.401 461 124.89C461 125.379 460.55 126.104 460 126.5C459.45 126.897 459 127.621 459 128.11C459 128.599 458.775 129 458.5 129C458.225 129 458 129.401 458 129.89C458 130.379 457.55 131.104 457 131.5C456.45 131.897 456 132.621 456 133.11C456 133.599 455.775 134 455.5 134C455.225 134 455 134.401 455 134.89C455 135.379 454.55 136.104 454 136.5C453.45 136.897 453 137.621 453 138.11C453 138.599 452.775 139 452.5 139C452.225 139 452 139.401 452 139.89C452 140.379 451.55 141.104 451 141.5C450.45 141.897 450 142.572 450 143C450 143.429 449.55 144.104 449 144.5C448.45 144.897 448 145.621 448 146.11C448 146.599 447.775 147 447.5 147C447.225 147 447 147.45 447 148C447 148.55 446.775 149 446.5 149C446.225 149 446 150.254 446 151.786C446 154.653 446.708 156 448.215 156C448.647 156 449 156.225 449 156.5C449 156.82 453.424 157 461.272 157H473.546L474.772 158.227C476.021 159.475 476.558 163 475.5 163C475.225 163 475 163.45 475 164C475 164.55 474.775 165 474.5 165C474.225 165 474 165.45 474 166C474 166.55 473.775 167 473.5 167C473.225 167 473 167.45 473 168C473 168.55 472.775 169 472.5 169C472.225 169 472 169.45 472 170C472 170.55 471.775 171 471.5 171C471.225 171 471 171.45 471 172C471 172.55 470.775 173 470.5 173C470.225 173 470 173.45 470 174C470 174.55 469.775 175 469.5 175C469.225 175 469 175.45 469 176C469 176.55 468.775 177 468.5 177C468.225 177 468 177.45 468 178C468 178.55 467.775 179 467.5 179C467.225 179 467 179.45 467 180C467 180.55 466.775 181 466.5 181C466.225 181 466 181.45 466 182C466 182.55 465.775 183 465.5 183C465.225 183 465 183.45 465 184C465 184.55 464.775 185 464.5 185C464.225 185 464 185.45 464 186C464 186.55 463.775 187 463.5 187C463.225 187 463 187.675 463 188.5C463 189.325 462.775 190 462.5 190C462.225 190 462 190.45 462 191C462 191.55 461.775 192 461.5 192C461.225 192 461 192.45 461 193C461 193.55 460.775 194 460.5 194C460.225 194 460 194.45 460 195C460 195.55 459.775 196 459.5 196C459.225 196 459 196.45 459 197C459 197.55 458.775 198 458.5 198C458.225 198 458 198.45 458 199C458 199.55 457.775 200 457.5 200C457.225 200 457 200.45 457 201C457 201.55 456.775 202 456.5 202C456.225 202 456 202.45 456 203C456 203.55 455.775 204 455.5 204C455.225 204 455 204.45 455 205C455 205.55 454.775 206 454.5 206C454.225 206 454 206.45 454 207C454 207.55 453.775 208 453.5 208C453.225 208 453 208.45 453 209C453 209.55 452.775 210 452.5 210C452.225 210 452 210.45 452 211C452 211.55 451.775 212 451.5 212C451.225 212 451 212.45 451 213C451 213.55 450.775 214 450.5 214C450.225 214 450 214.675 450 215.5C450 216.325 449.775 217 449.5 217C449.225 217 449 217.45 449 218C449 218.55 448.775 219 448.5 219C447.741 219 447.903 221.474 448.715 222.286C449.526 223.098 452 223.259 452 222.5C452 222.225 452.359 222 452.799 222C453.239 222 454.229 221.325 455 220.5C455.771 219.675 456.671 219 457 219C457.329 219 458.229 218.325 459 217.5C459.771 216.675 460.671 216 461 216C461.329 216 462.229 215.325 463 214.5C463.771 213.675 464.671 213 465 213C465.329 213 466.229 212.325 467 211.5C467.771 210.675 468.666 210 468.99 210C469.313 210 470.443 209.1 471.5 208C472.557 206.9 473.687 206 474.01 206C474.334 206 475.229 205.325 476 204.5C476.771 203.675 477.671 203 478 203C478.329 203 479.229 202.325 480 201.5C480.771 200.675 481.666 200 481.99 200C482.313 200 483.443 199.1 484.5 198C485.557 196.9 486.687 196 487.01 196C487.334 196 488.229 195.325 489 194.5C489.771 193.675 490.671 193 491 193C491.329 193 492.229 192.325 493 191.5C493.771 190.675 494.671 190 495 190C495.329 190 496.229 189.325 497 188.5C497.771 187.675 498.666 187 498.99 187C499.313 187 500.443 186.1 501.5 185C502.557 183.9 503.687 183 504.01 183C504.334 183 505.229 182.325 506 181.5C506.771 180.675 507.671 180 508 180C508.329 180 509.229 179.325 510 178.5C510.771 177.675 511.671 177 512 177C512.329 177 513.229 176.325 514 175.5C514.771 174.675 515.666 174 515.99 174C516.313 174 517.443 173.1 518.5 172C519.557 170.9 520.687 170 521.01 170C521.334 170 522.229 169.325 523 168.5C523.771 167.675 524.671 167 525 167C525.329 167 526.229 166.325 527 165.5C527.771 164.675 528.666 164 528.99 164C529.313 164 530.443 163.1 531.5 162C532.557 160.9 533.687 160 534.01 160C534.334 160 535.229 159.325 536 158.5C536.771 157.675 537.671 157 538 157C538.329 157 539.229 156.325 540 155.5C540.771 154.675 541.671 154 542 154C542.329 154 543.229 153.325 544 152.5C544.771 151.675 545.654 151 545.964 151C546.948 151 551 146.568 551 145.49C551 144.279 548.893 142 547.773 142C547.348 142 547 141.775 547 141.5C547 141.185 543.571 141 537.714 141C528.098 141 527 140.778 527 138.828C527 138.418 526.719 137.952 526.375 137.792C525.875 137.559 525.875 137.442 526.375 137.209C526.719 137.048 527 136.581 527 136.169C527 135.758 527.9 134.557 529 133.5C530.1 132.443 531 131.332 531 131.031C531 130.73 535.95 125.541 542 119.5C548.05 113.459 553 108.283 553 107.998C553 107.713 557.05 103.439 562 98.5C566.95 93.561 571 89.2275 571 88.8705C571 88.513 571.45 87.8965 572 87.5C573.444 86.4595 573.328 83.7825 571.773 82.2275C571.098 81.5525 570.198 81 569.773 81C569.348 81 569 80.775 569 80.5C569 80.1795 564.411 80 556.234 80H543.466L541.734 78.2665C540.064 76.597 539.461 75 540.5 75C540.775 75 541 74.6405 541 74.2005C541 73.761 541.675 72.7705 542.5 72C543.325 71.2295 544 70.3405 544 70.0255C544 69.71 545.575 67.8985 547.5 66C549.425 64.1015 551 62.3015 551 62C551 61.6985 552.575 59.8985 554.5 58C556.425 56.1015 558 54.3015 558 54C558 53.6985 559.575 51.8985 561.5 50C563.425 48.1015 565 46.3015 565 46C565 45.6985 566.575 43.8985 568.5 42C570.425 40.1015 572 38.3015 572 38C572 37.6985 573.575 35.8985 575.5 34C577.425 32.1015 579 30.3015 579 30C579 29.6985 580.575 27.8985 582.5 26C584.425 24.1015 586 22.3015 586 22C586 21.6985 587.575 19.8985 589.5 18C591.425 16.1015 593 14.298 593 13.9915C593 13.6855 594.125 12.3395 595.5 11C596.875 9.6605 598 8.213 598 7.7825C598 7.352 598.225 7 598.5 7C599.279 7 599.097 2.52551 598.286 1.71451C597.676 1.10451 590.2 1 547.286 1C514.095 1 497 1.17 497 1.5ZM103 59.5C103 59.7915 104.667 60 107 60C109.333 60 111 60.2085 111 60.5C111 60.775 112.125 61 113.5 61C114.875 61 116 61.225 116 61.5C116 61.775 116.675 62 117.5 62C118.325 62 119 62.225 119 62.5C119 62.775 119.675 63 120.5 63C121.325 63 122 63.225 122 63.5C122 63.775 122.45 64 123 64C123.55 64 124 64.225 124 64.5C124 64.775 124.45 65 125 65C125.55 65 126 65.225 126 65.5C126 65.775 126.4 66 126.889 66C127.379 66 128.104 66.45 128.5 67C128.896 67.55 129.512 68 129.867 68C130.71 68 140 77.2905 140 78.133C140 78.4885 140.45 79.1035 141 79.5C141.55 79.8965 142 80.621 142 81.1105C142 81.5995 142.225 82 142.5 82C142.775 82 143 82.45 143 83C143 83.55 143.225 84 143.5 84C143.775 84 144 84.45 144 85C144 85.55 144.225 86 144.5 86C144.775 86 145 86.45 145 87C145 87.55 145.225 88 145.5 88C145.775 88 146 88.675 146 89.5C146 90.325 146.225 91 146.5 91C146.775 91 147 91.675 147 92.5C147 93.325 147.225 94 147.5 94C147.775 94 148 95.125 148 96.5C148 97.875 148.225 99 148.5 99C148.818 99 149 103 149 110C149 117 148.818 121 148.5 121C148.225 121 148 122.125 148 123.5C148 124.875 147.775 126 147.5 126C147.225 126 147 126.675 147 127.5C147 128.325 146.775 129 146.5 129C146.225 129 146 129.675 146 130.5C146 131.325 145.775 132 145.5 132C145.225 132 145 132.45 145 133C145 133.55 144.775 134 144.5 134C144.225 134 144 134.45 144 135C144 135.55 143.775 136 143.5 136C143.225 136 143 136.45 143 137C143 137.55 142.775 138 142.5 138C142.225 138 142 138.401 142 138.89C142 139.379 141.55 140.104 141 140.5C140.45 140.897 140 141.531 140 141.91C140 142.288 139.325 143.23 138.5 144C137.675 144.771 137 145.655 137 145.964C137 146.696 132.696 151 131.964 151C131.655 151 130.771 151.675 130 152.5C129.229 153.325 128.289 154 127.91 154C127.531 154 126.896 154.45 126.5 155C126.104 155.55 125.379 156 124.889 156C124.4 156 124 156.225 124 156.5C124 156.775 123.55 157 123 157C122.45 157 122 157.225 122 157.5C122 157.775 121.55 158 121 158C120.45 158 120 158.225 120 158.5C120 158.775 119.55 159 119 159C118.45 159 118 159.225 118 159.5C118 159.775 117.325 160 116.5 160C115.675 160 115 160.225 115 160.5C115 160.775 114.325 161 113.5 161C112.675 161 112 161.225 112 161.5C112 161.775 110.875 162 109.5 162C108.125 162 107 162.225 107 162.5C107 162.825 99.8335 163 86.5 163H66V111V59H84.5C96.5 59 103 59.1755 103 59.5ZM347 59.5C347 59.775 348.125 60 349.5 60C350.875 60 352 60.225 352 60.5C352 60.775 352.45 61 353 61C353.55 61 354 61.225 354 61.5C354 61.775 354.341 62 354.759 62C355.748 62 362 68.252 362 69.2405C362 69.6585 362.225 70 362.5 70C362.775 70 363 70.675 363 71.5C363 72.325 363.225 73 363.5 73C363.775 73 364 74.125 364 75.5C364 76.875 364.225 78 364.5 78C364.778 78 365 79.3335 365 81C365 82.6665 364.778 84 364.5 84C364.225 84 364 85.125 364 86.5C364 87.875 363.775 89 363.5 89C363.225 89 363 89.675 363 90.5C363 91.325 362.775 92 362.5 92C362.225 92 362 92.3415 362 92.7595C362 93.177 360.541 94.977 358.759 96.7595C356.977 98.5415 355.177 100 354.759 100C354.341 100 354 100.225 354 100.5C354 100.775 353.325 101 352.5 101C351.675 101 351 101.225 351 101.5C351 101.775 350.1 102 349 102C347.9 102 347 102.225 347 102.5C347 102.826 339.5 103 325.5 103H304V81V59H325.5C339.5 59 347 59.1745 347 59.5Z" fill="#F5E652"/>
</svg>
