<?xml version="1.0" encoding="UTF-8"?>
<svg width="49px" height="48px" viewBox="0 0 49 48" version="1.1" xmlns="http://www.w3.org/2000/svg" xmlns:xlink="http://www.w3.org/1999/xlink">
    <!-- Generator: Sketch 63.1 (92452) - https://sketch.com -->
    <title>logo</title>
    <desc>Created with Sketch.</desc>
    <g id="Page-1" stroke="none" stroke-width="1" fill="none" fill-rule="evenodd">
        <g id="Pricing_1tier_with_uni_callout" transform="translate(-616.000000, -28.000000)" fill="#FFFFFF">
            <g id="Hero">
                <g id="logo" transform="translate(616.000000, 28.000000)">
                    <path d="M24.1022969,0.0104276215 C37.3129412,0.0104276215 48.040112,10.7494323 48.040112,23.9746499 C48.040112,26.6596693 47.5979947,29.2421738 46.7827365,31.6531251 L27.2137255,31.6528588 L28.1963585,30.3960116 L42.0893557,30.3960116 C42.3901961,30.3960116 42.6081232,30.177844 42.6081232,29.8766718 C42.6081232,29.6035417 42.3627451,29.3848133 42.0893557,29.3848133 L28.9879552,29.3848133 L29.9431373,28.1554474 L37.012605,28.1554474 C37.2585434,28.1554474 37.4495798,27.936719 37.4495798,27.6361076 C37.4495798,27.3629775 37.2585434,27.1173287 37.012605,27.1173287 L18.2338936,27.1173287 L29.7252101,12.1153632 L10.7823529,12.1153632 L10.7823529,16.2145581 L20.8540616,16.2145581 L10.2910364,29.9316344 L8.10728291,32.6915384 L16.4871148,32.6915384 C17.1963585,30.9422718 18.9162465,29.6854247 20.9358543,29.6854247 C22.9560224,29.6854247 24.6753501,30.9153514 25.3851541,32.6915384 L46.4041076,32.6925619 C42.9177303,41.6133248 34.2414664,47.9388723 24.1022969,47.9388723 C10.8910924,47.9388723 0.164481793,37.2004285 0.164481793,23.9746499 C0.164481793,10.721951 10.8910924,0.0104276215 24.1022969,0.0104276215 Z M20.9907563,30.8603889 C18.9705882,30.8603889 17.3056022,32.5002912 17.3056022,34.5496083 C17.3056022,36.571444 18.9436975,38.2382668 20.9907563,38.2382668 C23.0103641,38.2382668 24.6753501,36.5989253 24.6753501,34.5496083 C24.6753501,32.5002912 23.0378151,30.8603889 20.9907563,30.8603889 Z" id="Combined-Shape"></path>
                </g>
            </g>
        </g>
    </g>
</svg>